<svg width="209" height="229" xmlns="http://www.w3.org/2000/svg" xmlns:xlink="http://www.w3.org/1999/xlink"><defs><path id="a" d="M0 211.904h178.61V.504H0z"/><path d="M4.412 8.804a8.548 8.548 0 004.979 7.764C4.228 18.107.462 22.884.462 28.547c0 .222.022.438.034.658h1.315c-.01-.22-.033-.436-.033-.658 0-6.179 5.008-11.188 11.189-11.188 6.177 0 11.186 5.01 11.186 11.188 0 .222-.018.438-.033.658h1.318c.009-.22.031-.436.031-.658 0-5.663-3.765-10.44-8.926-11.979a8.548 8.548 0 004.98-7.764A8.554 8.554 0 0012.966.25a8.554 8.554 0 00-8.555 8.554zm1.316 0a7.24 7.24 0 017.239-7.242 7.242 7.242 0 017.239 7.242 7.24 7.24 0 01-14.478 0z" id="c"/></defs><g fill="none" fill-rule="evenodd"><path d="M8.658 103.565c0-54.204 43.941-98.146 98.146-98.146 54.203 0 98.144 43.942 98.144 98.146s-43.941 98.146-98.144 98.146c-54.205 0-98.146-43.942-98.146-98.146" fill="#B1EBFD"/><path d="M27.005 103.562c0-44.07 35.725-79.796 79.795-79.796s79.795 35.726 79.795 79.796c0 44.07-35.726 79.795-79.795 79.795-44.07 0-79.795-35.725-79.795-79.795" fill="#CFF2FE"/><path d="M53.489 227.442h32.934m8.222 0h85.618" stroke="#007EC1" stroke-width="3" stroke-linecap="round" stroke-linejoin="round"/><path d="M2.317 215.211h175.637m4.074 0h24.755" stroke="#2C3D52" stroke-width="3" stroke-linecap="round"/><g transform="translate(16 -.188)"><path d="M1.645 84.814V28.387c0-.91.737-1.645 1.645-1.645h39.315v-6.547c0-.91.737-1.645 1.645-1.645h14.738v-1.093c0-8.44 6.25-15.308 13.933-15.308h32.767c7.682 0 13.933 6.868 13.933 15.308v1.1h14.738c.908 0 1.645.738 1.645 1.646v6.547h39.315c.91 0 1.645.735 1.645 1.645v180.219c0 .91-.736 1.645-1.645 1.645H3.29a1.645 1.645 0 01-1.645-1.645v-123.8z" stroke="#1D3A52" stroke-width="2.5" stroke-linecap="round" stroke-linejoin="round"/><path d="M90.95 202.06H11.482a1.646 1.646 0 01-1.645-1.646V36.578c0-.908.737-1.645 1.645-1.645H44.25c.91 0 1.645.737 1.645 1.645v22.93h86.819v-22.93c0-.908.737-1.645 1.645-1.645h32.768c.908 0 1.645.737 1.645 1.645v163.836c0 .908-.737 1.645-1.645 1.645h-44.919" stroke="#1D3A52" stroke-width="2.5" stroke-linecap="round" stroke-linejoin="round"/><path d="M13.128 198.769h152.354V38.223h-29.477v22.93c0 .909-.737 1.646-1.646 1.646H44.25a1.646 1.646 0 01-1.645-1.645v-22.93H13.128v160.545z" fill="#FFF"/><path d="M98.518 54.607H52.44a1.646 1.646 0 01-1.645-1.646V28.387c0-.91.737-1.645 1.645-1.645h14.74v-7.916c0-4.675 3.494-8.477 7.789-8.477h28.671c4.295 0 7.79 3.802 7.79 8.477v7.916h14.738c.908 0 1.645.736 1.645 1.645v24.574c0 .909-.737 1.646-1.645 1.646h-8.895" fill="#0090DF"/><path d="M98.518 54.607H52.44a1.646 1.646 0 01-1.645-1.646V28.387c0-.91.737-1.645 1.645-1.645h14.74v-7.916c0-4.675 3.494-8.477 7.789-8.477h28.671c4.295 0 7.79 3.802 7.79 8.477v7.916h14.738c.908 0 1.645.736 1.645 1.645v24.574c0 .909-.737 1.646-1.645 1.646h-8.895" stroke="#1D3A52" stroke-width="2.5" stroke-linecap="round" stroke-linejoin="round"/><mask id="b" fill="#fff"><use xlink:href="#a"/></mask><path fill="#0090DF" mask="url(#b)" d="M53.988 178.96h59.666v-7.458H53.988z"/><path stroke="#1D3A52" stroke-width="2.5" stroke-linecap="round" stroke-linejoin="round" mask="url(#b)" d="M53.988 178.96h59.666v-7.458H53.988z"/><path stroke="#1D3A52" stroke-width="3" stroke-linecap="round" stroke-linejoin="round" mask="url(#b)" d="M22.18 96.33V69.35h42.117v43.433H21.522"/><path d="M54.393 105.543c.013-.219.033-.436.033-.657 0-6.18-5.01-11.189-11.187-11.189-6.18 0-11.188 5.01-11.188 11.189 0 .221.021.438.033.657h-1.316c-.01-.22-.033-.436-.033-.657 0-5.664 3.765-10.441 8.927-11.98a8.548 8.548 0 01-4.979-7.764 8.554 8.554 0 018.556-8.554 8.554 8.554 0 018.555 8.554 8.548 8.548 0 01-4.98 7.764c5.163 1.539 8.928 6.316 8.928 11.98 0 .221-.022.437-.033.657h-1.316zm-3.916-20.401a7.24 7.24 0 10-14.48 0 7.24 7.24 0 0014.48 0z" fill="#1D3A52" mask="url(#b)"/><path d="M43.239 79.218a5.93 5.93 0 00-5.923 5.924 5.93 5.93 0 005.923 5.923 5.93 5.93 0 005.922-5.923 5.93 5.93 0 00-5.922-5.924m12.47 27.641h-1.316a1.318 1.318 0 01-1.313-1.394l.011-.183c.01-.131.019-.262.019-.396 0-5.444-4.428-9.873-9.871-9.873-5.444 0-9.872 4.43-9.872 9.873 0 .123.01.244.017.365l.013.222a1.314 1.314 0 01-1.314 1.386h-1.315a1.317 1.317 0 01-1.315-1.254l-.012-.206a7.402 7.402 0 01-.022-.513c0-5.17 2.95-9.89 7.418-12.242a9.896 9.896 0 01-3.47-7.502c0-5.442 4.428-9.87 9.872-9.87 5.443 0 9.87 4.428 9.87 9.87a9.896 9.896 0 01-3.469 7.502c4.469 2.352 7.418 7.072 7.418 12.242 0 .173-.01.342-.022.513l-.012.206a1.317 1.317 0 01-1.315 1.254" fill="#1D3A52" mask="url(#b)"/></g><g transform="translate(46.272 76.15)"><mask id="d" fill="#fff"><use xlink:href="#c"/></mask><path fill="#1D3A52" mask="url(#d)" d="M-6.118 35.786h38.17V-6.331h-38.17z"/><path d="M-4.801 34.47h35.536V-5.016H-4.8V34.47zm36.853 2.632h-38.17c-.727 0-1.316-.59-1.316-1.316V-6.331c0-.726.589-1.316 1.316-1.316h38.17c.726 0 1.316.59 1.316 1.316v42.117c0 .726-.59 1.316-1.316 1.316z" fill="#1D3A52" mask="url(#d)"/></g><path d="M70.489 156.442h32.934m6.066 0h57.93" stroke="#007EC1" stroke-width="3" stroke-linecap="round" stroke-linejoin="round"/><path d="M69.317 148.211h66.64m7.36 0h24.64m-98.64-7h46.64m7.36 0h44.64" stroke="#2C3D52" stroke-width="3" stroke-linecap="round"/><path stroke="#1D3A52" stroke-width="2.5" stroke-linecap="round" stroke-linejoin="round" d="M166.946 126.564v7.458h-96.96"/><path d="M25.792 221.327H61.79m7.165 0H199.74" stroke="#007EC1" stroke-width="3" stroke-linecap="round" stroke-linejoin="round"/><path d="M201.33 181.405a1.53 1.53 0 100 3.06 1.53 1.53 0 000-3.06m-183.467 0a1.53 1.53 0 10.001 3.06 1.53 1.53 0 00-.001-3.06m-6.625-97.848h-1.02v-1.02a1.02 1.02 0 00-2.038 0v1.02H7.16a1.02 1.02 0 000 2.038h1.02v1.02a1.02 1.02 0 002.038 0v-1.02h1.02a1.02 1.02 0 000-2.038m183.467 40.77h-1.02v-1.02a1.02 1.02 0 00-2.038 0v1.02h-1.02a1.02 1.02 0 000 2.038h1.02v1.02a1.02 1.02 0 002.038 0v-1.02h1.02a1.02 1.02 0 000-2.038m-183.467 40.77h-1.02v-1.019a1.02 1.02 0 00-2.038 0v1.02H7.16a1.02 1.02 0 000 2.038h1.02v1.02a1.02 1.02 0 002.038 0v-1.02h1.02a1.02 1.02 0 000-2.039" fill="#D8D8D8"/></g></svg>