<svg width="209" height="224" xmlns="http://www.w3.org/2000/svg"><g fill="none" fill-rule="evenodd"><path d="M8.658 98.565C8.658 44.361 52.599.419 106.804.419c54.203 0 98.144 43.942 98.144 98.146s-43.941 98.146-98.144 98.146c-54.205 0-98.146-43.942-98.146-98.146" fill="#B1EBFD"/><path d="M27.005 98.562c0-44.07 35.725-79.796 79.795-79.796s79.795 35.726 79.795 79.796c0 44.07-35.726 79.795-79.795 79.795-44.07 0-79.795-35.725-79.795-79.795" fill="#CFF2FE"/><path d="M53.489 222.442h32.934m8.222 0h85.618" stroke="#007EC1" stroke-width="3" stroke-linecap="round" stroke-linejoin="round"/><path d="M2.317 210.211h175.637m4.074 0h24.755" stroke="#2C3D52" stroke-width="3" stroke-linecap="round"/><path d="M167.379 197.77H133.19a2.15 2.15 0 01-2.151-2.152v-49.094h-46.77v49.094a2.151 2.151 0 01-2.152 2.151H47.93a2.15 2.15 0 01-2.151-2.151V24.804c0-1.187.962-2.151 2.151-2.151h119.45c1.189 0 2.151.964 2.151 2.151v170.814a2.15 2.15 0 01-2.151 2.151" fill="#FFF"/><path d="M123.946 165.981v23.702c0 .97-.663 2.211-1.633 2.211H94.21c-.97 0-1.633-1.241-1.633-2.21v-35.13c0-.97.663-2.211 1.633-2.211h28.103c.97 0 1.694 1.067 1.694 2.037l-.061 11.601z" fill="#008FDB"/><path d="M40.241 85.306V197.9H16.744c-1.15 0-2.32-.448-2.32.7v2.528c0 1.15 1.17 2.509 2.32 2.509h181.82c1.148 0 .886-1.358.886-2.509v-2.527c0-1.149.262-.701-.887-.701h-24.93V19.302c0-1.15-.182-.691-1.33-.691H41.57c-1.15 0-1.33-.46-1.33.69V69.53" stroke="#1D3A52" stroke-width="3" stroke-linecap="round" stroke-linejoin="round"/><path d="M123.431 165.628v24.917c0 1.012-.157 3.052-1.172 3.052H92.89c-1.013 0-2.447-2.04-2.447-3.053V153.83c0-1.014 1.434-1.828 2.447-1.828h29.37c1.015 0 1.505.801 1.505 1.815" stroke="#1D3A52" stroke-width="3" stroke-linecap="round" stroke-linejoin="round"/><path d="M60.473 15.334H28.806a2.15 2.15 0 01-2.152-2.152V8.944c0-1.188.962-2.152 2.151-2.152h153.698c1.188 0 2.152.964 2.152 2.152v4.238a2.151 2.151 0 01-2.152 2.152H74.337" fill="#FFF"/><path d="M60.473 15.334H28.806a2.15 2.15 0 01-2.152-2.152V8.944c0-1.188.962-2.152 2.151-2.152h153.698c1.188 0 2.152.964 2.152 2.152v4.238a2.151 2.151 0 01-2.152 2.152H74.337" stroke="#1D3A52" stroke-width="2.5" stroke-linecap="round" stroke-linejoin="round"/><path d="M147.226 58.195h-12.43c-.864 0-1.563-.7-1.563-1.563V44.22c0-.864.7-1.564 1.563-1.564h12.43c.863 0 1.563.7 1.563 1.564v12.41c0 .864-.7 1.564-1.563 1.564z" stroke="#1D3A52" stroke-width="2.5"/><path d="M81.376 52.077v4.555c0 .864-.7 1.564-1.563 1.564h-4.908m-7.522-.001c-.863 0-1.563-.7-1.563-1.563V44.22c0-.864.7-1.564 1.563-1.564h12.43c.863 0 1.563.7 1.563 1.564v4.271m19.714 44.128c-.864 0-1.564-.7-1.564-1.564v-12.41c0-.864.7-1.564 1.563-1.564h12.43c.864 0 1.564.7 1.564 1.563v12.412c0 .863-.7 1.563-1.564 1.563h-6.582" stroke="#1D3A52" stroke-width="2.5" stroke-linecap="round" stroke-linejoin="round"/><path d="M147.226 92.619h-12.43c-.864 0-1.563-.7-1.563-1.564v-12.41c0-.864.7-1.564 1.563-1.564h12.43c.863 0 1.563.7 1.563 1.563v12.411c0 .864-.7 1.564-1.563 1.564zm-67.413 0h-12.43c-.863 0-1.563-.7-1.563-1.564v-12.41c0-.864.7-1.564 1.563-1.564h12.43c.863 0 1.563.7 1.563 1.563v12.411c0 .864-.7 1.564-1.563 1.564z" stroke="#1D3A52" stroke-width="2.5"/><path d="M115.083 122.12v3.36c0 .863-.7 1.563-1.564 1.563h-12.43c-.863 0-1.563-.7-1.563-1.564v-12.411c0-.863.7-1.563 1.564-1.563h12.429c.864 0 1.564.7 1.564 1.563v1.88" stroke="#1D3A52" stroke-width="2.5" stroke-linecap="round" stroke-linejoin="round"/><path d="M147.226 127.042h-12.43c-.864 0-1.563-.7-1.563-1.563v-12.411c0-.864.7-1.564 1.563-1.564h12.43c.863 0 1.563.7 1.563 1.564v12.41c0 .864-.7 1.564-1.563 1.564z" stroke="#1D3A52" stroke-width="2.5"/><path d="M67.383 127.042c-.863 0-1.563-.7-1.563-1.563v-12.411c0-.864.7-1.564 1.563-1.564h12.43c.863 0 1.563.7 1.563 1.564v12.411c0 .863-.7 1.563-1.563 1.563h-3.715" stroke="#1D3A52" stroke-width="2.5" stroke-linecap="round" stroke-linejoin="round"/><path d="M95.039 54.03h6.915c.644 0 1.17.524 1.17 1.166v6.918c0 .643.523 1.166 1.167 1.166h6.713a1.17 1.17 0 001.17-1.166v-6.918a1.17 1.17 0 011.167-1.167h6.917a1.17 1.17 0 001.168-1.167v-6.717c0-.641-.525-1.168-1.168-1.168h-6.917a1.17 1.17 0 01-1.168-1.167v-6.916c0-.644-.524-1.17-1.169-1.17h-6.713a1.17 1.17 0 00-1.168 1.17v6.916a1.17 1.17 0 01-1.169 1.167H95.04a1.17 1.17 0 00-1.168 1.168v6.717a1.17 1.17 0 001.168 1.167" fill="#008FDB"/><path d="M95.039 54.03h6.915c.644 0 1.17.524 1.17 1.166v6.918c0 .643.523 1.166 1.167 1.166h6.713a1.17 1.17 0 001.17-1.166v-6.918a1.17 1.17 0 011.167-1.167h6.917a1.17 1.17 0 001.168-1.167v-6.717c0-.641-.525-1.168-1.168-1.168h-6.917a1.17 1.17 0 01-1.168-1.167v-6.916c0-.644-.524-1.17-1.169-1.17h-6.713a1.17 1.17 0 00-1.168 1.17v6.916a1.17 1.17 0 01-1.169 1.167H95.04a1.17 1.17 0 00-1.168 1.168v6.717a1.17 1.17 0 001.168 1.167h0z" stroke="#2C3D52" stroke-width="2"/><path d="M25.792 216.327H61.79m7.165 0H199.74" stroke="#007EC1" stroke-width="3" stroke-linecap="round" stroke-linejoin="round"/><path d="M201.33 176.405a1.53 1.53 0 100 3.06 1.53 1.53 0 000-3.06m-183.467 0a1.53 1.53 0 10.001 3.06 1.53 1.53 0 00-.001-3.06m-6.625-97.848h-1.02v-1.02a1.02 1.02 0 00-2.038 0v1.02H7.16a1.02 1.02 0 000 2.038h1.02v1.02a1.02 1.02 0 002.038 0v-1.02h1.02a1.02 1.02 0 000-2.038m183.467 40.77h-1.02v-1.02a1.02 1.02 0 00-2.038 0v1.02h-1.02a1.02 1.02 0 000 2.038h1.02v1.02a1.02 1.02 0 002.038 0v-1.02h1.02a1.02 1.02 0 000-2.038m-183.467 40.77h-1.02v-1.019a1.02 1.02 0 00-2.038 0v1.02H7.16a1.02 1.02 0 000 2.038h1.02v1.02a1.02 1.02 0 002.038 0v-1.02h1.02a1.02 1.02 0 000-2.039" fill="#D8D8D8"/></g></svg>